<svg width="24" height="22" xmlns="http://www.w3.org/2000/svg">
 <g>
  <title>Layer 1</title>
  <g id="svg_1">
   <path d="m23.27545,8.40373a15.866,15.866 0 0 0 -3.371,-3.909l2.8,-2.8a1,1 0 0 0 -1.414,-1.414l-3.045,3.049a12.054,12.054 0 0 0 -6.241,-1.69c-6.191,0 -9.719,4.238 -11.271,6.764a4.908,4.908 0 0 0 0,5.162a15.866,15.866 0 0 0 3.371,3.909l-2.8,2.8a1,1 0 1 0 1.414,1.414l3.052,-3.052a12.054,12.054 0 0 0 6.234,1.693c6.191,0 9.719,-4.238 11.271,-6.764a4.908,4.908 0 0 0 0,-5.162zm-20.838,4.115a2.918,2.918 0 0 1 0,-3.068c1.334,-2.166 4.349,-5.811 9.567,-5.811a10.1,10.1 0 0 1 4.766,1.165l-2.013,2.013a4.992,4.992 0 0 0 -6.92,6.92l-2.31,2.31a13.723,13.723 0 0 1 -3.09,-3.529zm12.567,-1.534a3,3 0 0 1 -3,3a2.951,2.951 0 0 1 -1.285,-0.3l3.985,-3.985a2.951,2.951 0 0 1 0.3,1.285zm-6,0a3,3 0 0 1 3,-3a2.951,2.951 0 0 1 1.285,0.3l-3.985,3.985a2.951,2.951 0 0 1 -0.3,-1.285zm12.567,1.534c-1.334,2.166 -4.349,5.811 -9.567,5.811a10.1,10.1 0 0 1 -4.766,-1.165l2.013,-2.013a4.992,4.992 0 0 0 6.92,-6.92l2.31,-2.31a13.723,13.723 0 0 1 3.09,3.529a2.918,2.918 0 0 1 0,3.068z" id="svg_2"/>
  </g>
 </g>

</svg>