<svg width="25" height="22" xmlns="http://www.w3.org/2000/svg">
 <g>
  <title>Layer 1</title>
  <g>
   <g>
    <title>Layer 1</title>
    <g>
     <g id="svg_3" data-name="01 align center">
      <path d="m24.30868,10.07119l0,0c-0.878,-1.92 -4.321,-8.181 -11.821,-8.181s-10.943,6.261 -11.821,8.181a1.969,1.969 0 0 0 0,1.64c0.878,1.918 4.321,8.179 11.821,8.179s10.943,-6.261 11.821,-8.181a1.968,1.968 0 0 0 0,-1.638zm-11.821,7.819c-6.307,0 -9.25,-5.366 -10,-6.989c0.75,-1.645 3.693,-7.011 10,-7.011c6.292,0 9.236,5.343 10,7c-0.764,1.657 -3.708,7 -10,7z"/>
      <path d="m12.48768,5.89019a5,5 0 1 0 5,5a5.006,5.006 0 0 0 -5,-5zm0,8a3,3 0 1 1 3,-3a3,3 0 0 1 -3,3z"/>
     </g>
    </g>
   </g>
  </g>
 </g>

</svg>