<svg width="24" height="24" xmlns="http://www.w3.org/2000/svg">
 <g>
  <title>Layer 1</title>
  <g>
   <path d="m20,11l0,8c0,2.757 -2.243,5 -5,5l-10,0c-2.757,0 -5,-2.243 -5,-5l0,-10c0,-2.757 2.243,-5 5,-5l8,0c0.552,0 1,0.448 1,1s-0.448,1 -1,1l-8,0c-1.654,0 -3,1.346 -3,3l0,10c0,1.654 1.346,3 3,3l10,0c1.654,0 3,-1.346 3,-3l0,-8c0,-0.552 0.448,-1 1,-1s1,0.448 1,1zm1,-11l-7,0c-0.552,0 -1,0.448 -1,1s0.448,1 1,1l6.586,0l-12.293,12.293c-0.391,0.391 -0.391,1.023 0,1.414c0.195,0.195 0.451,0.293 0.707,0.293s0.512,-0.098 0.707,-0.293l12.293,-12.293l0,6.586c0,0.552 0.448,1 1,1s1,-0.448 1,-1l0,-7c0,-1.654 -1.346,-3 -3,-3z"/>
  </g>
 </g>

</svg>